<svg width="29" height="20" viewBox="0 0 29 20" fill="none" xmlns="http://www.w3.org/2000/svg">
<g clip-path="url(#clip0_144_8)">
<path d="M7.76203 2.85714H10.15V7.14286H5.04328L6.42078 3.75446C6.63828 3.21429 7.16844 2.85714 7.76203 2.85714ZM12.325 7.14286V2.85714H16.0044C16.4439 2.85714 16.8608 3.05357 17.1372 3.39286L20.1822 7.14286H12.325ZM23.9341 7.1875L19.4028 1.60714C18.5781 0.589286 17.3275 0 16.0044 0H7.76203C5.98125 0 4.38172 1.06696 3.72469 2.69196L1.83969 7.33929C0.76125 7.75893 0 8.79018 0 10V15C0 15.7902 0.647969 16.4286 1.45 16.4286H2.95891C3.30328 18.4554 5.09312 20 7.25 20C9.40687 20 11.1967 18.4554 11.5411 16.4286H17.4589C17.8033 18.4554 19.5931 20 21.75 20C23.9069 20 25.6967 18.4554 26.0411 16.4286H27.55C28.352 16.4286 29 15.7902 29 15V12.8571C29 9.94643 26.7888 7.54464 23.9341 7.1875ZM19.6973 15C19.7897 14.7311 19.9353 14.4829 20.1258 14.2699C20.3162 14.0569 20.5478 13.8833 20.8069 13.7592C21.0661 13.6351 21.3477 13.5629 21.6354 13.547C21.9231 13.531 22.2111 13.5715 22.4828 13.6662C22.7545 13.7608 23.0043 13.9077 23.2179 14.0983C23.4314 14.2889 23.6044 14.5193 23.7268 14.7764C23.8492 15.0334 23.9185 15.3118 23.9308 15.5954C23.943 15.879 23.8979 16.1623 23.7981 16.4286C23.7058 16.6975 23.5602 16.9457 23.3697 17.1587C23.1792 17.3717 22.9477 17.5453 22.6885 17.6694C22.4294 17.7935 22.1478 17.8656 21.8601 17.8816C21.5724 17.8976 21.2843 17.857 21.0127 17.7624C20.741 17.6678 20.4911 17.5209 20.2776 17.3303C20.064 17.1397 19.891 16.9092 19.7686 16.6522C19.6463 16.3952 19.5769 16.1168 19.5647 15.8332C19.5525 15.5495 19.5976 15.2663 19.6973 15ZM7.25 13.5714C7.82685 13.5714 8.38007 13.7972 8.78796 14.1991C9.19585 14.6009 9.425 15.146 9.425 15.7143C9.425 16.2826 9.19585 16.8277 8.78796 17.2295C8.38007 17.6314 7.82685 17.8571 7.25 17.8571C6.67315 17.8571 6.11993 17.6314 5.71204 17.2295C5.30415 16.8277 5.075 16.2826 5.075 15.7143C5.075 15.146 5.30415 14.6009 5.71204 14.1991C6.11993 13.7972 6.67315 13.5714 7.25 13.5714Z" fill="#04D7A4"/>
</g>
<defs>
<clipPath id="clip0_144_8">
<rect width="29" height="20" fill="white"/>
</clipPath>
</defs>
</svg>
