<svg width="19" height="22" viewBox="0 0 19 22" fill="none" xmlns="http://www.w3.org/2000/svg">
<path fill-rule="evenodd" clip-rule="evenodd" d="M4.06133 2.04167C4.06133 1.78617 6.78975 0 9.49883 0C12.2079 0 14.9363 1.78675 14.9363 2.04167C14.9363 2.95167 14.836 3.49067 14.7515 3.78408C14.6953 3.97658 14.5086 4.08333 14.3014 4.08333H4.69631C4.48908 4.08333 4.30239 3.97658 4.24621 3.78408C4.16162 3.49067 4.06133 2.95167 4.06133 2.04167ZM8.59258 1.75C8.43235 1.75 8.27867 1.81146 8.16537 1.92085C8.05207 2.03025 7.98842 2.17862 7.98842 2.33333C7.98842 2.48804 8.05207 2.63642 8.16537 2.74581C8.27867 2.85521 8.43235 2.91667 8.59258 2.91667H10.4051C10.5653 2.91667 10.719 2.85521 10.8323 2.74581C10.9456 2.63642 11.0092 2.48804 11.0092 2.33333C11.0092 2.17862 10.9456 2.03025 10.8323 1.92085C10.719 1.81146 10.5653 1.75 10.4051 1.75H8.59258ZM4.68846 7.7105C2.67658 7.10967 3.18408 6.03633 3.95137 5.25H15.2142C15.8281 6.00717 16.1574 7.02858 14.302 7.63992C14.3778 8.28976 14.3113 8.94774 14.1069 9.57119C13.9024 10.1946 13.5645 10.7696 13.1151 11.2589C12.6657 11.7482 12.1147 12.1407 11.4981 12.4112C10.8814 12.6817 10.2128 12.824 9.53546 12.829C8.85817 12.8339 8.18736 12.7013 7.56654 12.4399C6.94572 12.1784 6.38875 11.7939 5.93174 11.3112C5.47473 10.8285 5.12789 10.2585 4.91371 9.63813C4.69952 9.01773 4.62278 8.36079 4.68846 7.70992V7.7105ZM9.3345 8.16667C10.9307 8.16667 12.168 8.085 13.1166 7.94267C13.1478 8.41827 13.078 8.89501 12.9116 9.34366C12.7452 9.79232 12.4857 10.2034 12.1489 10.5518C11.8122 10.9002 11.4053 11.1786 10.9532 11.3697C10.5011 11.5609 10.0133 11.661 9.5197 11.6637C9.02614 11.6665 8.53719 11.5719 8.08283 11.3857C7.62847 11.1996 7.21827 10.9258 6.87737 10.5812C6.53647 10.2365 6.27205 9.82832 6.10032 9.38154C5.92859 8.93476 5.85316 8.45883 5.87866 7.98292C6.76256 8.10075 7.89537 8.16667 9.3345 8.16667ZM14.5841 16.6833C14.0376 15.8601 13.2854 15.1829 12.3968 14.714C11.5081 14.2451 10.5115 13.9995 9.49883 14C8.4857 13.9994 7.4887 14.2449 6.5997 14.7141C5.71069 15.1832 4.95826 15.8608 4.41175 16.6845C4.20892 16.3829 3.89741 16.1646 3.53752 16.072L2.37027 15.7704C1.98338 15.6703 1.57114 15.7226 1.22421 15.9159C0.877288 16.1092 0.62409 16.4276 0.520311 16.8012L0.0514777 18.4917C0.000130756 18.6767 -0.0129703 18.8696 0.0129227 19.0595C0.0388157 19.2494 0.103196 19.4325 0.202386 19.5984C0.301577 19.7642 0.433634 19.9096 0.591018 20.0262C0.748403 20.1428 0.92803 20.2283 1.11964 20.2778L2.28629 20.58C2.48253 20.631 2.68743 20.6432 2.88866 20.6157C3.08989 20.5882 3.28328 20.5217 3.45717 20.4202C3.45765 20.5749 3.52176 20.7231 3.6354 20.8321C3.74905 20.9412 3.90291 21.0022 4.06314 21.0017C4.22338 21.0013 4.37686 20.9394 4.48982 20.8297C4.60279 20.7199 4.66598 20.5714 4.6655 20.4167V19.8333C4.6655 19.6111 4.68181 19.3923 4.71262 19.1782L7.85671 19.992C8.00265 20.2936 8.23467 20.5488 8.52553 20.7275C8.8164 20.9063 9.15404 21.0013 9.49883 21.0013C9.84363 21.0013 10.1813 20.9063 10.4721 20.7275C10.763 20.5488 10.995 20.2936 11.141 19.992L14.285 19.1782C14.3159 19.3923 14.3322 19.6111 14.3322 19.8333V20.4167C14.3314 20.5714 14.3942 20.7201 14.507 20.83C14.6197 20.9399 14.7731 21.0021 14.9333 21.0029C15.0935 21.0037 15.2475 20.943 15.3614 20.8341C15.4753 20.7253 15.5397 20.5772 15.5405 20.4225C15.8788 20.6185 16.2969 20.6867 16.7084 20.58L17.8756 20.2784C18.0672 20.2289 18.2468 20.1434 18.4042 20.0268C18.5616 19.9102 18.6937 19.7648 18.7929 19.5989C18.8921 19.4331 18.9564 19.25 18.9823 19.0601C19.0082 18.8702 18.9951 18.6772 18.9438 18.4922L18.4743 16.8018C18.3706 16.4282 18.1174 16.1098 17.7704 15.9165C17.4235 15.7232 17.0113 15.6709 16.6244 15.771L15.4571 16.0726C15.0981 16.1649 14.7871 16.3828 14.5841 16.6833ZM5.02981 18.0524C5.35617 17.2903 5.88567 16.6252 6.5645 16.1247C7.24332 15.6242 8.04728 15.3062 8.89467 15.2028V17.5998C8.62391 17.6925 8.37979 17.8459 8.18234 18.0474C7.98489 18.2489 7.83975 18.4927 7.75883 18.7588L5.02981 18.053V18.0524ZM13.9679 18.0524C13.6414 17.2904 13.1119 16.6253 12.4331 16.1248C11.7543 15.6243 10.9504 15.3062 10.103 15.2028V17.5998C10.6492 17.7864 11.0757 18.2181 11.2388 18.7588L13.9679 18.053V18.0524ZM9.49883 19.8333C9.65907 19.8333 9.81274 19.7719 9.92604 19.6625C10.0393 19.5531 10.103 19.4047 10.103 19.25C10.103 19.0953 10.0393 18.9469 9.92604 18.8375C9.81274 18.7281 9.65907 18.6667 9.49883 18.6667C9.3386 18.6667 9.18492 18.7281 9.07162 18.8375C8.95832 18.9469 8.89467 19.0953 8.89467 19.25C8.89467 19.4047 8.95832 19.5531 9.07162 19.6625C9.18492 19.7719 9.3386 19.8333 9.49883 19.8333Z" fill="#04D7A4"/>
</svg>
