<svg width="800" height="800" viewBox="0 0 800 800" fill="none" xmlns="http://www.w3.org/2000/svg">
<path d="M400 266.7C326.6 266.7 266.7 326.6 266.7 400C266.7 473.4 326.6 533.3 400 533.3C473.4 533.3 533.3 473.4 533.3 400C533.3 326.6 473.4 266.7 400 266.7ZM799.8 400C799.8 344.8 800.3 290.1 797.2 235C794.1 171 779.5 114.2 732.7 67.3998C685.8 20.4998 629.1 5.99976 565.1 2.89976C509.9 -0.200238 455.2 0.299764 400.1 0.299764C344.9 0.299764 290.2 -0.200238 235.1 2.89976C171.1 5.99976 114.3 20.5998 67.5001 67.3998C20.6001 114.3 6.1001 171 3.0001 235C-0.0998957 290.2 0.400106 344.9 0.400106 400C0.400106 455.1 -0.0998957 509.9 3.0001 565C6.1001 629 20.7001 685.8 67.5001 732.6C114.4 779.5 171.1 794 235.1 797.1C290.3 800.2 345 799.7 400.1 799.7C455.3 799.7 510 800.2 565.1 797.1C629.1 794 685.9 779.4 732.7 732.6C779.6 685.7 794.1 629 797.2 565C800.4 509.9 799.8 455.2 799.8 400ZM400 605.1C286.5 605.1 194.9 513.5 194.9 400C194.9 286.5 286.5 194.9 400 194.9C513.5 194.9 605.1 286.5 605.1 400C605.1 513.5 513.5 605.1 400 605.1ZM613.5 234.4C587 234.4 565.6 213 565.6 186.5C565.6 160 587 138.6 613.5 138.6C640 138.6 661.4 160 661.4 186.5C661.408 192.792 660.174 199.025 657.77 204.84C655.366 210.655 651.838 215.938 647.388 220.388C642.939 224.837 637.655 228.365 631.84 230.77C626.025 233.174 619.793 234.408 613.5 234.4Z" fill="#04D7A4"/>
</svg>
