<svg width="28" height="21" viewBox="0 0 28 21" fill="none" xmlns="http://www.w3.org/2000/svg">
<path d="M11 0H8C7.46957 0 6.96086 0.210714 6.58579 0.585787C6.21071 0.96086 6 1.46957 6 2V11.21C8.315 11.874 10 14.032 10 16.541C10 17.185 9.576 17.747 8.98 17.934C8.97754 17.956 8.97487 17.978 8.972 18H17.672C16.9482 17.4151 16.4236 16.6203 16.1703 15.7248C15.917 14.8294 15.9476 13.8775 16.2577 13.0002C16.5679 12.1229 17.1423 11.3633 17.9021 10.826C18.6618 10.2886 19.5695 10.0001 20.5 10H24.586C25.081 10 25.556 10.081 26 10.231V10C26 9.20435 25.6839 8.44129 25.1213 7.87868C24.5587 7.31607 23.7956 7 23 7H12.5C12.3674 7 12.2402 7.05268 12.1464 7.14645C12.0527 7.24021 12 7.36739 12 7.5V9C12 9.53043 12.2107 10.0391 12.5858 10.4142C12.9609 10.7893 13.4696 11 14 11H14.5C14.8978 11 15.2794 11.158 15.5607 11.4393C15.842 11.7206 16 12.1022 16 12.5C16 12.8978 15.842 13.2794 15.5607 13.5607C15.2794 13.842 14.8978 14 14.5 14H10.667C10.4901 14 10.3204 13.9297 10.1954 13.8046C10.0703 13.6796 10 13.5099 10 13.333V2H11C11.2652 2 11.5196 1.89464 11.7071 1.70711C11.8946 1.51957 12 1.26522 12 1C12 0.734784 11.8946 0.48043 11.7071 0.292893C11.5196 0.105357 11.2652 0 11 0Z" fill="#04D7A4"/>
<path d="M13.667 4C12.747 4 12 4.746 12 5.667C12 5.851 12.15 6 12.333 6H20.667C20.851 6 21 5.85 21 5.667C21 4.747 20.254 4 19.333 4H13.667ZM8 17.5C7.99914 17.9802 7.89946 18.4551 7.70718 18.8951C7.5149 19.3352 7.23412 19.7309 6.88232 20.0578C6.53052 20.3846 6.11522 20.6356 5.66226 20.7951C5.2093 20.9545 4.72837 21.0191 4.2494 20.9847C3.77042 20.9503 3.30364 20.8177 2.8781 20.5952C2.45257 20.3727 2.07737 20.065 1.77587 19.6912C1.47436 19.3175 1.253 18.8856 1.12554 18.4227C0.998083 17.9597 0.967265 17.4754 1.035 17H0.455001C0.333879 16.9992 0.218003 16.9505 0.132731 16.8644C0.0474585 16.7784 -0.000265946 16.6621 1.11482e-06 16.541C1.11482e-06 14.056 2.015 12 4.5 12C6.985 12 9 14.056 9 16.541C9.00027 16.662 8.95268 16.7781 8.86763 16.8641C8.78257 16.9501 8.66695 16.9989 8.546 17H7.965C7.988 17.163 8 17.33 8 17.5ZM3.085 17C3.00543 17.2262 2.98125 17.4681 3.01447 17.7056C3.04769 17.9431 3.13735 18.1691 3.27594 18.3648C3.41453 18.5604 3.598 18.72 3.81097 18.8302C4.02395 18.9403 4.26023 18.9978 4.5 18.9978C4.73977 18.9978 4.97605 18.9403 5.18903 18.8302C5.40201 18.72 5.58548 18.5604 5.72406 18.3648C5.86265 18.1691 5.95231 17.9431 5.98553 17.7056C6.01875 17.4681 5.99457 17.2262 5.915 17H3.085ZM26.965 18C26.844 18.8355 26.4251 19.5992 25.7855 20.1502C25.1459 20.7013 24.3288 21.0028 23.4845 20.999C22.6403 20.9952 21.8259 20.6865 21.1912 20.1297C20.5566 19.5729 20.1446 18.8056 20.031 17.969C19.1506 17.851 18.3479 17.4027 17.7858 16.7149C17.2236 16.0271 16.944 15.1513 17.0037 14.265C17.0633 13.3787 17.4577 12.5482 18.107 11.9419C18.7562 11.3357 19.6117 10.9989 20.5 11H24.586C25.4915 11 26.3598 11.3597 27.0001 11.9999C27.6403 12.6402 28 13.5086 28 14.414V17C28 17.2652 27.8946 17.5196 27.7071 17.7071C27.5196 17.8946 27.2652 18 27 18H26.965ZM22.085 18C22.1881 18.293 22.3796 18.5468 22.633 18.7263C22.8865 18.9058 23.1894 19.0022 23.5 19.0022C23.8106 19.0022 24.1135 18.9058 24.367 18.7263C24.6205 18.5468 24.8119 18.293 24.915 18H22.085Z" fill="#04D7A4"/>
</svg>
